<svg width="87" height="34" viewBox="0 0 87 34" fill="none" xmlns="http://www.w3.org/2000/svg">
<path d="M48.1829 15.1995L45.0027 7.48284L44.4883 6.12658L44.5818 7.57637V15.1995H41.9628V0.0935669H44.2544L47.4346 7.81021L47.9023 9.16647L47.8555 7.66991V0.0935669H50.4745V15.1995H48.1829Z" fill="white"/>
<path d="M57.2558 2.66578V15.1995H54.4965V2.66578H51.8776V0.0935669H59.8748V2.66578H57.2558Z" fill="white"/>
<path d="M61.1843 15.1995V0.0935669H68.1527V2.66578H63.9436V6.31365H67.4979V8.8391H63.9436V12.6273H68.1527V15.1995H61.1843Z" fill="white"/>
<path d="M73.3906 15.3398C71.1458 15.3398 69.3218 14.2173 69.3218 10.7098V4.62999C69.3218 1.07565 71.1458 0 73.3906 0C75.6822 0 77.3658 1.12242 77.4126 4.77029H74.6066C74.6066 3.13342 74.326 2.57221 73.3906 2.57221C72.6423 2.57221 72.1279 2.89959 72.1279 4.72352V10.663C72.1279 12.4869 72.6891 12.8143 73.3906 12.8143C74.2324 12.8143 74.6066 12.3466 74.6066 10.5695H77.4126C77.3658 13.9367 75.8225 15.3398 73.3906 15.3398Z" fill="white"/>
<path d="M84.2407 15.1995V8.88586H81.6685V15.1995H78.9092V0.0935669H81.6685V6.26688H84.2407V0.0935669H87V15.1995H84.2407Z" fill="white"/>
<path d="M41.9628 34V18.9409H44.7221V31.4278H49.0715V34H41.9628Z" fill="white"/>
<path d="M56.7414 34L56.2269 31.5681H53.1871L52.7194 34H50.0069L53.5144 18.9409H55.9931L59.5474 34H56.7414ZM55.011 25.5351L54.7304 23.8982L54.4498 25.5351L53.7015 29.2765H55.806L55.011 25.5351Z" fill="white"/>
<path d="M64.6451 34H60.4828V18.9409H64.5516C67.3108 18.9409 68.6203 20.2503 68.6203 23.0564V23.337C68.6203 25.0674 67.7785 25.9092 67.0302 26.2834C67.7785 26.564 68.8074 27.4525 68.8074 29.4168V29.6974C68.7606 32.8308 67.0302 34 64.6451 34ZM64.3645 21.4663H63.2888V25.0674H64.4113C65.5337 25.0674 65.8611 24.3659 65.8611 23.2435C65.8143 22.0743 65.4401 21.4663 64.3645 21.4663ZM64.458 27.5461H63.2421V31.4746H64.458C65.674 31.4746 66.0014 30.773 66.0014 29.5103C66.0014 28.2476 65.7208 27.5461 64.458 27.5461Z" fill="white"/>
<path d="M17.5034 30.5392C16.5681 30.5392 15.773 31.2875 15.773 32.2696C15.773 33.205 16.5213 34 17.5034 34C18.4388 34 19.2338 33.2517 19.2338 32.2696C19.187 31.2875 18.4388 30.5392 17.5034 30.5392Z" fill="white"/>
<path d="M32.7497 15.293C31.8143 15.293 31.0193 16.0412 31.0193 17.0234C31.0193 17.9587 31.7675 18.7538 32.7497 18.7538C33.685 18.7538 34.4801 18.0055 34.4801 17.0234C34.4333 16.0412 33.685 15.293 32.7497 15.293Z" fill="white"/>
<path d="M2.25719 18.707C3.19254 18.707 3.98759 17.9587 3.98759 16.9766C3.98759 16.0413 3.23931 15.2462 2.25719 15.2462C1.32184 15.2462 0.526794 15.9945 0.526794 16.9766C0.526794 17.9587 1.27508 18.707 2.25719 18.707Z" fill="white"/>
<path d="M17.5034 3.4608C18.4388 3.4608 19.2338 2.71252 19.2338 1.7304C19.2338 0.795048 18.4855 0 17.5034 0C16.5681 0 15.773 0.748281 15.773 1.7304C15.773 2.71252 16.5213 3.4608 17.5034 3.4608Z" fill="white"/>
<path d="M26.1086 7.99725C25.828 7.81018 25.5007 7.66988 25.1265 7.66988C24.1912 7.66988 23.3961 8.41816 23.3961 9.40027C23.3961 10.3356 24.1444 11.1307 25.1265 11.1307C26.0619 11.1307 26.8569 10.3824 26.8569 9.40027C26.8569 9.02613 26.7166 8.65199 26.5295 8.37139L31.7207 3.13342C32.0013 3.32049 32.3287 3.4608 32.7496 3.4608C33.685 3.4608 34.48 2.71252 34.48 1.7304C34.48 0.795048 33.7317 0 32.7496 0C31.8143 0 31.0192 0.748281 31.0192 1.7304C31.0192 2.10454 31.1595 2.43191 31.3466 2.71252L26.1086 7.99725Z" fill="white"/>
<path d="M8.94495 26.0495C9.22556 26.2366 9.50616 26.3301 9.8803 26.3301C10.8157 26.3301 11.6107 25.5818 11.6107 24.5997C11.6107 23.6644 10.8624 22.8693 9.8803 22.8693C8.94495 22.8693 8.1499 23.6176 8.1499 24.5997C8.1499 25.0206 8.29021 25.3948 8.52404 25.6754L3.33285 30.9133C3.05224 30.6795 2.6781 30.5392 2.25719 30.5392C1.27508 30.5392 0.526794 31.2875 0.526794 32.2228C0.526794 33.1582 1.27508 33.9532 2.25719 33.9532C3.19254 33.9532 3.98759 33.2049 3.98759 32.2228C3.98759 31.8955 3.89406 31.5681 3.70699 31.2875L8.94495 26.0495Z" fill="white"/>
<path d="M32.7496 11.0839C33.685 11.0839 34.48 10.3356 34.48 9.35351C34.48 8.41816 33.7317 7.62311 32.7496 7.62311C31.8143 7.62311 31.0192 8.37139 31.0192 9.35351C31.0192 9.72765 31.1595 10.1018 31.3466 10.3824L26.1554 15.6204C25.8748 15.3865 25.5007 15.293 25.1265 15.293C24.1912 15.293 23.3961 16.0413 23.3961 17.0234C23.3961 17.9587 24.1444 18.7538 25.1265 18.7538C25.5007 18.7538 25.828 18.6135 26.1086 18.4264L31.3466 23.6644C31.1595 23.945 31.0192 24.2724 31.0192 24.6465C31.0192 25.5818 31.7675 26.3769 32.7496 26.3769C33.685 26.3769 34.48 25.6286 34.48 24.6465C34.48 23.7111 33.7317 22.9161 32.7496 22.9161C32.3755 22.9161 32.0013 23.0564 31.7207 23.2435L26.4828 18.0055C26.6698 17.7249 26.8101 17.3975 26.8101 16.9766C26.8101 16.6025 26.7166 16.2751 26.4828 15.9945L31.7207 10.7565C32.0481 10.9904 32.3755 11.0839 32.7496 11.0839Z" fill="white"/>
<path d="M2.25721 26.3301C3.19256 26.3301 3.98761 25.5818 3.98761 24.5997C3.98761 24.2256 3.89407 23.8982 3.66023 23.6176L8.8982 18.3796C9.1788 18.5667 9.50618 18.707 9.88032 18.707C10.8157 18.707 11.6107 17.9587 11.6107 16.9766C11.6107 16.0413 10.8624 15.2462 9.88032 15.2462C9.50618 15.2462 9.1788 15.3398 8.8982 15.5736L3.66023 10.3356C3.8473 10.055 3.98761 9.72765 3.98761 9.35351C3.98761 8.41816 3.23933 7.62311 2.25721 7.62311C1.32186 7.62311 0.526809 8.37139 0.526809 9.35351C0.526809 10.2889 1.27509 11.0839 2.25721 11.0839C2.63135 11.0839 3.00549 10.9436 3.28609 10.7565L8.47729 15.9945C8.24345 16.2751 8.14992 16.6492 8.14992 17.0234C8.14992 17.3975 8.29022 17.7717 8.47729 18.0523L3.23933 23.2435C2.95872 23.0096 2.58458 22.9161 2.21044 22.9161C1.27509 22.9161 0.480042 23.6644 0.480042 24.6465C0.526809 25.5818 1.27509 26.3301 2.25721 26.3301Z" fill="white"/>
<path d="M25.1265 30.5392C24.7992 30.5392 24.4718 30.6327 24.2379 30.8198L18.9532 25.5351C19.0935 25.2545 19.2338 24.9738 19.2338 24.6465C19.2338 23.7111 18.4855 22.9161 17.5034 22.9161C16.5681 22.9161 15.773 23.6644 15.773 24.6465C15.773 25.0206 15.8666 25.348 16.0536 25.6286L10.8157 30.8198C10.5351 30.6327 10.2077 30.5392 9.83355 30.5392C8.8982 30.5392 8.10315 31.2875 8.10315 32.2696C8.10315 33.2049 8.85143 34 9.83355 34C10.7689 34 11.5639 33.2517 11.5639 32.2696C11.5639 31.8954 11.4236 31.5213 11.1898 31.2407L16.4278 25.956C16.7084 26.1898 17.0825 26.3301 17.4567 26.3301C17.8776 26.3301 18.2517 26.1898 18.5323 25.9092L23.7703 31.1472C23.5364 31.4278 23.3494 31.8019 23.3494 32.2228C23.3494 33.1582 24.0976 33.9532 25.0798 33.9532C26.0151 33.9532 26.8102 33.2049 26.8102 32.2228C26.8102 31.2875 26.0619 30.5392 25.1265 30.5392Z" fill="white"/>
<path d="M32.7496 30.5392C32.3755 30.5392 32.0014 30.6795 31.7208 30.8666L26.4828 25.6286C26.6699 25.348 26.8102 25.0206 26.8102 24.5997C26.8102 23.6644 26.0619 22.8693 25.0798 22.8693C24.1444 22.8693 23.3494 23.6176 23.3494 24.5997C23.3494 25.5351 24.0976 26.3301 25.0798 26.3301C25.4539 26.3301 25.7813 26.1898 26.0619 26.0027L31.2998 31.2407C31.1128 31.5213 30.9725 31.8487 30.9725 32.2228C30.9725 33.1582 31.7208 33.9532 32.7029 33.9532C33.6382 33.9532 34.4333 33.2049 34.4333 32.2228C34.4333 31.2875 33.685 30.5392 32.7496 30.5392Z" fill="white"/>
<path d="M2.25719 3.4608C2.6781 3.4608 3.00547 3.32049 3.33285 3.08666L8.57081 8.32462C8.33697 8.60523 8.19667 8.97937 8.19667 9.40027C8.19667 10.3356 8.94495 11.1307 9.92707 11.1307C10.8624 11.1307 11.6575 10.3824 11.6575 9.40027C11.6575 8.46492 10.9092 7.66988 9.92707 7.66988C9.5997 7.66988 9.27232 7.76341 8.99172 7.95048L3.66022 2.66575C3.84729 2.38514 3.94082 2.05777 3.94082 1.7304C3.94082 0.795048 3.19254 0 2.21043 0C1.27507 0.0467675 0.526794 0.795048 0.526794 1.7304C0.526794 2.71252 1.27508 3.4608 2.25719 3.4608Z" fill="white"/>
<path d="M9.88036 3.4608C10.2545 3.4608 10.5819 3.36726 10.8625 3.18019L16.1004 8.41816C15.9134 8.69876 15.8198 9.02613 15.8198 9.40027C15.8198 10.3356 16.5681 11.1307 17.5502 11.1307C18.4856 11.1307 19.2806 10.3824 19.2806 9.40027C19.2806 9.02613 19.1871 8.69876 19 8.46492L24.1445 3.18019C24.4251 3.36726 24.7524 3.4608 25.0798 3.4608C26.0152 3.4608 26.8102 2.71252 26.8102 1.7304C26.8102 0.795048 26.0619 0 25.0798 0C24.1445 0 23.3494 0.748281 23.3494 1.7304C23.3494 2.10454 23.4897 2.47868 23.7236 2.75928L18.5324 8.04401C18.2518 7.81018 17.8776 7.66988 17.5035 7.66988C17.1293 7.66988 16.7552 7.81018 16.4746 8.04401L11.2366 2.80605C11.4705 2.52545 11.6108 2.15131 11.6108 1.77717C11.6108 0.841816 10.8625 0.0467675 9.88036 0.0467675C8.94501 0.0467675 8.14996 0.795048 8.14996 1.77717C8.14996 2.71252 8.89824 3.4608 9.88036 3.4608Z" fill="white"/>
</svg>
